<svg data-v-423bf9ae="" xmlns="http://www.w3.org/2000/svg" viewBox="0 0 636 90" class="iconLeft"><!----><!----><!----><g data-v-423bf9ae="" id="fbc451f9-9b16-44d5-aa5a-40d42f066c85" fill="black" transform="matrix(5.714285850524902,0,0,5.714285850524902,101.5999984741211,-3.057143211364746)"><path d="M1.47 13.55L1.47 3.75L2.87 3.75L2.87 12.33L8.18 12.33L8.18 13.55L1.47 13.55ZM12.77 13.64L12.77 13.64Q11.66 13.64 10.78 13.15L10.78 13.15L10.78 13.15Q9.90 12.66 9.40 11.79L9.40 11.79L9.40 11.79Q8.90 10.93 8.90 9.84L8.90 9.84L8.90 9.84Q8.90 8.75 9.40 7.89L9.40 7.89L9.40 7.89Q9.90 7.03 10.78 6.54L10.78 6.54L10.78 6.54Q11.66 6.06 12.77 6.06L12.77 6.06L12.77 6.06Q13.87 6.06 14.75 6.54L14.75 6.54L14.75 6.54Q15.62 7.03 16.12 7.89L16.12 7.89L16.12 7.89Q16.62 8.75 16.62 9.84L16.62 9.84L16.62 9.84Q16.62 10.93 16.12 11.79L16.12 11.79L16.12 11.79Q15.62 12.66 14.75 13.15L14.75 13.15L14.75 13.15Q13.87 13.64 12.77 13.64L12.77 13.64ZM12.77 12.46L12.77 12.46Q13.48 12.46 14.05 12.13L14.05 12.13L14.05 12.13Q14.62 11.80 14.94 11.21L14.94 11.21L14.94 11.21Q15.26 10.61 15.26 9.84L15.26 9.84L15.26 9.84Q15.26 9.07 14.94 8.48L14.94 8.48L14.94 8.48Q14.62 7.88 14.05 7.56L14.05 7.56L14.05 7.56Q13.48 7.24 12.77 7.24L12.77 7.24L12.77 7.24Q12.05 7.24 11.49 7.56L11.49 7.56L11.49 7.56Q10.92 7.88 10.59 8.48L10.59 8.48L10.59 8.48Q10.26 9.07 10.26 9.84L10.26 9.84L10.26 9.84Q10.26 10.61 10.59 11.21L10.59 11.21L10.59 11.21Q10.92 11.80 11.49 12.13L11.49 12.13L11.49 12.13Q12.05 12.46 12.77 12.46L12.77 12.46ZM21.71 13.64L21.71 13.64Q20.58 13.64 19.69 13.15L19.69 13.15L19.69 13.15Q18.80 12.66 18.30 11.79L18.30 11.79L18.30 11.79Q17.79 10.93 17.79 9.84L17.79 9.84L17.79 9.84Q17.79 8.75 18.30 7.89L18.30 7.89L18.30 7.89Q18.80 7.03 19.69 6.54L19.69 6.54L19.69 6.54Q20.58 6.06 21.71 6.06L21.71 6.06L21.71 6.06Q22.72 6.06 23.51 6.47L23.51 6.47L23.51 6.47Q24.30 6.87 24.74 7.64L24.74 7.64L23.72 8.30L23.72 8.30Q23.37 7.77 22.85 7.50L22.85 7.50L22.85 7.50Q22.33 7.24 21.70 7.24L21.70 7.24L21.70 7.24Q20.97 7.24 20.39 7.56L20.39 7.56L20.39 7.56Q19.81 7.88 19.48 8.48L19.48 8.48L19.48 8.48Q19.15 9.07 19.15 9.84L19.15 9.84L19.15 9.84Q19.15 10.63 19.48 11.22L19.48 11.22L19.48 11.22Q19.81 11.82 20.39 12.14L20.39 12.14L20.39 12.14Q20.97 12.46 21.70 12.46L21.70 12.46L21.70 12.46Q22.33 12.46 22.85 12.19L22.85 12.19L22.85 12.19Q23.37 11.93 23.72 11.40L23.72 11.40L24.74 12.04L24.74 12.04Q24.30 12.81 23.51 13.22L23.51 13.22L23.51 13.22Q22.72 13.64 21.71 13.64L21.71 13.64ZM32.14 13.55L29.36 10.09L27.82 11.52L27.82 13.55L26.47 13.55L26.47 3.16L27.82 3.16L27.82 9.83L31.86 6.13L33.49 6.13L30.37 9.20L33.80 13.55L32.14 13.55ZM39.06 13.55L39.06 3.75L40.46 3.75L40.46 13.55L39.06 13.55ZM47.17 6.06L47.17 6.06Q48.58 6.06 49.41 6.88L49.41 6.88L49.41 6.88Q50.25 7.70 50.25 9.28L50.25 9.28L50.25 13.55L48.90 13.55L48.90 9.44L48.90 9.44Q48.90 8.36 48.38 7.81L48.38 7.81L48.38 7.81Q47.87 7.27 46.90 7.27L46.90 7.27L46.90 7.27Q45.81 7.27 45.18 7.90L45.18 7.90L45.18 7.90Q44.55 8.54 44.55 9.73L44.55 9.73L44.55 13.55L43.20 13.55L43.20 6.13L44.49 6.13L44.49 7.25L44.49 7.25Q44.90 6.68 45.59 6.37L45.59 6.37L45.59 6.37Q46.28 6.06 47.17 6.06L47.17 6.06ZM59.56 13.66L59.56 13.66Q58.45 13.66 57.42 13.32L57.42 13.32L57.42 13.32Q56.39 12.98 55.80 12.43L55.80 12.43L56.32 11.34L56.32 11.34Q56.88 11.84 57.76 12.16L57.76 12.16L57.76 12.16Q58.63 12.47 59.56 12.47L59.56 12.47L59.56 12.47Q60.77 12.47 61.38 12.06L61.38 12.06L61.38 12.06Q61.98 11.65 61.98 10.96L61.98 10.96L61.98 10.96Q61.98 10.46 61.65 10.14L61.65 10.14L61.65 10.14Q61.32 9.83 60.84 9.66L60.84 9.66L60.84 9.66Q60.35 9.49 59.47 9.28L59.47 9.28L59.47 9.28Q58.37 9.02 57.69 8.75L57.69 8.75L57.69 8.75Q57.01 8.48 56.53 7.93L56.53 7.93L56.53 7.93Q56.04 7.38 56.04 6.44L56.04 6.44L56.04 6.44Q56.04 5.66 56.46 5.03L56.46 5.03L56.46 5.03Q56.87 4.40 57.71 4.02L57.71 4.02L57.71 4.02Q58.55 3.64 59.79 3.64L59.79 3.64L59.79 3.64Q60.66 3.64 61.50 3.86L61.50 3.86L61.50 3.86Q62.34 4.09 62.94 4.51L62.94 4.51L62.48 5.63L62.48 5.63Q61.87 5.24 61.17 5.03L61.17 5.03L61.17 5.03Q60.47 4.83 59.79 4.83L59.79 4.83L59.79 4.83Q58.60 4.83 58.01 5.26L58.01 5.26L58.01 5.26Q57.41 5.70 57.41 6.38L57.41 6.38L57.41 6.38Q57.41 6.89 57.75 7.20L57.75 7.20L57.75 7.20Q58.09 7.52 58.58 7.69L58.58 7.69L58.58 7.69Q59.08 7.87 59.93 8.06L59.93 8.06L59.93 8.06Q61.04 8.33 61.71 8.60L61.71 8.60L61.71 8.60Q62.38 8.86 62.87 9.41L62.87 9.41L62.87 9.41Q63.35 9.95 63.35 10.88L63.35 10.88L63.35 10.88Q63.35 11.65 62.93 12.29L62.93 12.29L62.93 12.29Q62.51 12.92 61.66 13.29L61.66 13.29L61.66 13.29Q60.80 13.66 59.56 13.66L59.56 13.66ZM67.90 6.06L67.90 6.06Q69.44 6.06 70.26 6.82L70.26 6.82L70.26 6.82Q71.08 7.57 71.08 9.07L71.08 9.07L71.08 13.55L69.80 13.55L69.80 12.57L69.80 12.57Q69.47 13.09 68.85 13.36L68.85 13.36L68.85 13.36Q68.22 13.64 67.37 13.64L67.37 13.64L67.37 13.64Q66.12 13.64 65.37 13.03L65.37 13.03L65.37 13.03Q64.62 12.43 64.62 11.45L64.62 11.45L64.62 11.45Q64.62 10.47 65.34 9.88L65.34 9.88L65.34 9.88Q66.05 9.28 67.61 9.28L67.61 9.28L69.73 9.28L69.73 9.02L69.73 9.02Q69.73 8.15 69.23 7.69L69.23 7.69L69.23 7.69Q68.73 7.22 67.75 7.22L67.75 7.22L67.75 7.22Q67.09 7.22 66.46 7.44L66.46 7.44L66.46 7.44Q65.83 7.66 65.39 8.02L65.39 8.02L64.83 7.01L64.83 7.01Q65.41 6.55 66.21 6.31L66.21 6.31L66.21 6.31Q67.00 6.06 67.90 6.06L67.90 6.06ZM67.59 12.60L67.59 12.60Q68.36 12.60 68.92 12.26L68.92 12.26L68.92 12.26Q69.48 11.91 69.73 11.28L69.73 11.28L69.73 10.25L67.66 10.25L67.66 10.25Q65.95 10.25 65.95 11.40L65.95 11.40L65.95 11.40Q65.95 11.96 66.39 12.28L66.39 12.28L66.39 12.28Q66.82 12.60 67.59 12.60L67.59 12.60ZM73.57 13.55L73.57 3.16L74.91 3.16L74.91 13.55L73.57 13.55ZM80.65 13.64L80.65 13.64Q79.55 13.64 78.67 13.15L78.67 13.15L78.67 13.15Q77.78 12.66 77.29 11.79L77.29 11.79L77.29 11.79Q76.79 10.93 76.79 9.84L76.79 9.84L76.79 9.84Q76.79 8.75 77.29 7.89L77.29 7.89L77.29 7.89Q77.78 7.03 78.67 6.54L78.67 6.54L78.67 6.54Q79.55 6.06 80.65 6.06L80.65 6.06L80.65 6.06Q81.76 6.06 82.64 6.54L82.64 6.54L82.64 6.54Q83.51 7.03 84.01 7.89L84.01 7.89L84.01 7.89Q84.50 8.75 84.50 9.84L84.50 9.84L84.50 9.84Q84.50 10.93 84.01 11.79L84.01 11.79L84.01 11.79Q83.51 12.66 82.64 13.15L82.64 13.15L82.64 13.15Q81.76 13.64 80.65 13.64L80.65 13.64ZM80.65 12.46L80.65 12.46Q81.37 12.46 81.94 12.13L81.94 12.13L81.94 12.13Q82.50 11.80 82.82 11.21L82.82 11.21L82.82 11.21Q83.15 10.61 83.15 9.84L83.15 9.84L83.15 9.84Q83.15 9.07 82.82 8.48L82.82 8.48L82.82 8.48Q82.50 7.88 81.94 7.56L81.94 7.56L81.94 7.56Q81.37 7.24 80.65 7.24L80.65 7.24L80.65 7.24Q79.94 7.24 79.37 7.56L79.37 7.56L79.37 7.56Q78.81 7.88 78.48 8.48L78.48 8.48L78.48 8.48Q78.15 9.07 78.15 9.84L78.15 9.84L78.15 9.84Q78.15 10.61 78.48 11.21L78.48 11.21L78.48 11.21Q78.81 11.80 79.37 12.13L79.37 12.13L79.37 12.13Q79.94 12.46 80.65 12.46L80.65 12.46ZM90.33 6.06L90.33 6.06Q91.74 6.06 92.58 6.88L92.58 6.88L92.58 6.88Q93.41 7.70 93.41 9.28L93.41 9.28L93.41 13.55L92.06 13.55L92.06 9.44L92.06 9.44Q92.06 8.36 91.55 7.81L91.55 7.81L91.55 7.81Q91.03 7.27 90.06 7.27L90.06 7.27L90.06 7.27Q88.97 7.27 88.34 7.90L88.34 7.90L88.34 7.90Q87.71 8.54 87.71 9.73L87.71 9.73L87.71 13.55L86.37 13.55L86.37 6.13L87.65 6.13L87.65 7.25L87.65 7.25Q88.06 6.68 88.75 6.37L88.75 6.37L88.75 6.37Q89.45 6.06 90.33 6.06L90.33 6.06Z"></path></g><!----><g data-v-423bf9ae="" id="a83ccf92-28d1-4bf3-9435-5d47bc899e47" transform="matrix(2.8125,0,0,2.8125,0,0)" stroke="none" fill="black"><path d="M16 32c8.837 0 16-7.163 16-16S24.837 0 16 0 0 7.163 0 16s7.163 16 16 16zM14.817 6.421h2v8.886h8.887v2H14.817V6.421zm-5.959.437h2v14.283h14.283v2H8.858V6.858z"></path></g><!----></svg>